<svg class="canvas" version="1.1" 
    xmlns="http://www.w3.org/2000/svg" 
    xmlns:xlink="http://www.w3.org/1999/xlink" width="100%" height="100%">
    <path d="M100,46.667c0-7.362-5.971-13.333-13.334-13.333c-0.008,0-0.014,0.001-0.021,0.001c-0.438-9.274-8.465-16.668-18.312-16.668c-8.635,0-15.871,5.688-17.812,13.342c-2.37,0.08-4.511,1.06-6.095,2.604c-2.203-0.614-4.525-0.946-6.928-0.946c-14.244,0-25.832,11.59-25.832,25.834c0,0.289,0.008,0.576,0.018,0.863C5.17,58.786,0,64.216,0,70.834c0,6.611,5.16,12.039,11.666,12.469v0.031h66.658c0.002,0,0.006,0,0.008,0C84.768,83.334,90,78.102,90,71.668c0-5.895-4.395-10.775-10.076-11.557c-0.004-0.036-0.01-0.073-0.014-0.11h6.756C94.029,60.001,100,54.031,100,46.667z M86.666,71.668c0,4.579-3.713,8.309-8.287,8.333H12.24l-0.354-0.022c-4.799-0.316-8.555-4.334-8.555-9.145c0-4.816,3.764-8.833,8.564-9.145l3.223-0.209l-0.105-3.229c-0.01-0.25-0.016-0.501-0.016-0.753c0-12.406,10.094-22.5,22.5-22.5c8.283,0,15.881,4.548,19.823,11.869l1.154,2.144l2.396-0.447c0.819-0.153,1.647-0.231,2.461-0.231c3.336,0,6.53,1.245,8.996,3.506c2.45,2.247,3.971,5.295,4.274,8.581l0.246,2.637l2.619,0.357C83.572,63.979,86.666,67.525,86.666,71.668z" transform="translate(0,-16.66699981689453)" fill="#000000"></path>
</svg>