<svg class="canvas" version="1.1" 
    xmlns="http://www.w3.org/2000/svg" 
    xmlns:xlink="http://www.w3.org/1999/xlink" width="96px" height="96px" viewBox="0 0 96 96">
    <path fill-rule="evenodd" clip-rule="evenodd" fill="#000000" d="M46.632,38.925c0,4.817,3.907,8.722,8.724,8.722    c4.815,0,8.722-3.905,8.722-8.722c0-1.404-0.113-5.002-2.491-6.231c-0.618-0.318,8.744-23.585,7.476-24.922    c-0.488-0.516-2.429-2.464-2.491-2.492c-0.55,10.885-0.393,17.381-9.969,24.922c-0.409-0.074,0.103,0-1.246,0    C50.539,30.202,46.632,34.107,46.632,38.925z M52.862,32.694c2.064,0,3.739,1.675,3.739,3.739c0,2.065-1.675,3.738-3.739,3.738    c-2.063,0-3.737-1.673-3.737-3.738C49.125,34.369,50.799,32.694,52.862,32.694z M66.582,41.647c-0.475,0.66-0.915,2.5-1.324,4.229    c9.544,7.249,18.758,14.232,18.758,14.232l-67.29-17.445c0,0,5.009-9.824,27.65-12.735c0.01,0.025,0.771,0.62,2.076,1.622    c1.59-1.482,3.329-2.452,3.989-3.195c-2.361-1.945-3.81-3.137-3.81-3.137S19.135,24.186,9.249,45.005v32.55L89,95V60.108    C89,60.108,77.568,50.695,66.582,41.647z" transform="translate(-9.24899959564209,-5.279999256134033)"></path>
</svg>