<svg class="canvas" version="1.1" 
    xmlns="http://www.w3.org/2000/svg" 
    xmlns:xlink="http://www.w3.org/1999/xlink" width="24px" height="96px" viewBox="0 0 24 96">
    <defs class="[object Object]"></defs>
    <g class="logo-entity-inner">
        <g>
            <g>
                <path fill-rule="evenodd" clip-rule="evenodd" d="M46.792,70.256c-0.088,0.555,1.847-10.14,2.447-13.867    c1.03-3.449,1.696-7.597,3.112-11.527c0.092-0.258,0.186-0.517,0.242-0.783c0.361-1.703,1.039-3.257,2.01-4.712    c0.445-0.667,0.686-1.479,0.967-2.243c0.074-0.195-0.053-0.463-0.098-0.756c-0.17,0.123-0.254,0.153-0.289,0.213    c-2.123,3.559-4.256,7.111-6.34,10.693c-0.279,0.482-0.429,1.117-0.416,1.676c0.029,1.281-0.392,2.403-0.959,3.517    c-0.073-0.394-0.084-0.78-0.071-1.165c0.083-2.502,0.176-5.004,0.251-7.507c0.046-1.487,0.026-2.977,0.107-4.46    c0.091-1.678,0.263-3.352,0.397-5.028c0.136-1.676,0.25-3.354,0.406-5.028c0.336-3.61,1.592-6.911,3.415-10.018    c0.127-0.217,0.314-0.398,0.469-0.593c0.408,0.305,0.721,0.636,1.104,0.803c0.371,0.162,0.922,0.348,1.205,0.189    c1.066-0.597,2.246-0.641,3.383-0.896c1.301-0.293,2.174-1.046,2.455-2.379c0.096-0.451,0.234-0.949,0.127-1.368    c-0.088-0.342-0.51-0.599-0.783-0.892c0.143-0.32,0.311-0.632,0.426-0.961c0.588-1.708-0.217-3.004-1.984-3.345    c-0.787-0.15-1.543-0.464-2.229-0.679c0-0.547,0.043-0.942-0.01-1.325c-0.107-0.823-0.617-1.338-1.395-1.564    c-0.863-0.251-1.705-0.124-2.211,0.639c-0.619,0.939-1.098,1.973-1.619,2.976c-0.189,0.36-0.324,0.749-0.555,1.291    c-0.39-0.716-0.675-1.268-0.988-1.804c-0.309-0.528-0.342-1.25-1.134-1.681c-0.091,0.696-0.126,1.232-0.234,1.754    c-0.246,1.189-0.014,2.263,0.742,3.202c0.598,0.741,0.838,1.562,0.804,2.504c-0.038,1.019,0.445,1.797,1.242,2.399    c0.215,0.162,0.431,0.324,0.734,0.553c-0.416,0.813-0.798,1.621-1.23,2.398c-1.021,1.826-1.792,3.754-2.148,5.803    c-0.396,2.269-0.662,4.562-0.913,6.853c-0.213,1.944-0.365,3.895-0.469,5.848c-0.119,2.226-0.156,4.457-0.221,6.686    c-0.089,3.13-0.153,6.259-0.261,9.388c-0.034,1.013-0.177,2.019-0.26,3.028c-0.025,0.312-0.046,3.361-0.372,4.503    c-0.468-0.232-1.128-1.72-0.848-2.135c0.532-0.795,0.46-1.646,0.144-2.476c-0.305-0.8-1.272-6.574-1.992-7.469    c-0.295-0.364-1.012-4.983-1.562-6.02c-0.618-1.17-2.167-2.917-2.147-2.605c0.062,0.971,0.094,1.961,0.303,2.906    c0.717,3.244,1.308,6.508,1.856,9.785c0.496,2.962,0.749,5.978,1.697,8.858c0.16,0.483,0.916,2.58,1.733,3.721    C45.649,68.299,46.792,70.256,46.792,70.256z" transform="translate(-39.2428092956543,-6.13411808013916)" fill="#000000"></path>
            </g>
            <path fill-rule="evenodd" clip-rule="evenodd" d="M45.812,67.32c0,0-0.384,21.609,1.023,26.107c0.174,0.557,0.62,0.442,0.853,0.404   c0.206-0.034,0.833-0.098,0.489-0.613c-0.979-1.468-1.276-8.188-1.468-13.337c-0.286-7.668,0.407-12.727,0.407-12.727L45.812,67.32   z" transform="translate(-39.2428092956543,-6.13411808013916)" fill="#000000"></path>
        </g>
    </g>
</svg>