<svg class="canvas" version="1.1" 
    xmlns="http://www.w3.org/2000/svg" 
    xmlns:xlink="http://www.w3.org/1999/xlink" width="100%" height="100%">
    <path d="M66.29,61.73,46.94,81.08A26.21,26.21,0,0,1,9.87,44L29.22,24.66a1.1,1.1,0,1,0-1.56-1.56L8.31,42.45A28.42,28.42,0,0,0,48.5,82.64L67.85,63.29a1.1,1.1,0,0,0-1.56-1.56Z" transform="translate(-0.1829541027545929,0.0043714651837944984)" fill="#000000"></path>
    <path d="M89.76.32a1.1,1.1,0,0,0-1.56,0L46.59,41.94a1.1,1.1,0,1,0,1.56,1.56L89.76,1.89A1.1,1.1,0,0,0,89.76.32Z" transform="translate(-0.1829541027545929,0.0043714651837944984)" fill="#000000"></path>
    <path d="M28.67,35.12a1.1,1.1,0,0,0,1.56,0L48.42,16.93a1.1,1.1,0,0,0-1.56-1.56L28.67,33.56A1.1,1.1,0,0,0,28.67,35.12Z" transform="translate(-0.1829541027545929,0.0043714651837944984)" fill="#000000"></path>
    <path d="M73.26,43.36,56.39,60.23a1.1,1.1,0,1,0,1.56,1.56L74.82,44.92a1.1,1.1,0,0,0-1.56-1.56Z" transform="translate(-0.1829541027545929,0.0043714651837944984)" fill="#000000"></path>
    <path d="M38.84,37.91a1,1,0,0,0,1.41,0L69.38,9A1,1,0,0,0,68,7.62L38.84,36.5A1,1,0,0,0,38.84,37.91Z" transform="translate(-0.1829541027545929,0.0043714651837944984)" fill="#000000"></path>
    <path d="M82,21.54,52.91,50.41a1,1,0,1,0,1.41,1.42L83.44,23A1,1,0,0,0,82,21.54Z" transform="translate(-0.1829541027545929,0.0043714651837944984)" fill="#000000"></path>
    <circle cx="28.35" cy="62.56" r="23.05" transform="translate(-0.1829541027545929,0.0043714651837944984)" fill="#000000"></circle>
</svg>